<?xml version="1.0" encoding="utf-8" standalone="no"?>
<!DOCTYPE svg PUBLIC "-//W3C//DTD SVG 1.1//EN"
  "http://www.w3.org/Graphics/SVG/1.1/DTD/svg11.dtd">
<!-- Created with matplotlib (http://matplotlib.org/) -->
<svg height="414.11625pt" version="1.1" viewBox="0 0 749.876619 414.11625" width="749.876619pt" xmlns="http://www.w3.org/2000/svg" xmlns:xlink="http://www.w3.org/1999/xlink">
 <defs>
  <style type="text/css">
*{stroke-linecap:butt;stroke-linejoin:round;}
  </style>
 </defs>
 <g id="figure_1">
  <g id="patch_1">
   <path d="M 0 414.11625 
L 749.876619 414.11625 
L 749.876619 0 
L 0 0 
z
" style="fill:#ffffff;"/>
  </g>
  <g id="axes_1">
   <g id="patch_2">
    <path d="M 42.620313 376.56 
L 346.983949 376.56 
L 346.983949 50.4 
L 42.620313 50.4 
z
" style="fill:#ffffff;"/>
   </g>
   <g id="PolyCollection_1">
    <defs>
     <path d="M 42.620313 -109.886441 
L 42.620313 -83.668851 
L 45.726064 -85.041966 
L 48.831815 -86.509707 
L 51.937567 -88.070862 
L 55.043318 -89.724041 
L 58.149069 -91.467718 
L 61.254821 -93.300269 
L 64.360572 -95.220016 
L 67.466324 -97.225263 
L 70.572075 -99.314334 
L 73.677826 -101.485596 
L 76.783578 -103.737473 
L 79.889329 -106.068439 
L 82.995081 -108.477002 
L 86.100832 -110.961668 
L 89.206583 -113.5209 
L 92.312335 -116.153057 
L 95.418086 -118.856348 
L 98.523838 -121.628773 
L 101.629589 -124.468081 
L 104.73534 -127.371734 
L 107.841092 -130.336887 
L 110.946843 -133.360372 
L 114.052595 -136.438706 
L 117.158346 -139.568101 
L 120.264097 -142.744484 
L 123.369849 -145.963527 
L 126.4756 -149.22068 
L 129.581351 -152.511207 
L 132.687103 -155.830227 
L 135.792854 -159.17275 
L 138.898606 -162.533718 
L 142.004357 -165.908041 
L 145.110108 -169.290635 
L 148.21586 -172.676453 
L 151.321611 -176.060516 
L 154.427363 -179.437944 
L 157.533114 -182.803975 
L 160.638865 -186.153992 
L 163.744617 -189.483537 
L 166.850368 -192.788332 
L 169.95612 -196.064286 
L 173.061871 -199.30751 
L 176.167622 -202.514326 
L 179.273374 -205.681269 
L 182.379125 -208.8051 
L 185.484877 -211.882803 
L 188.590628 -214.911597 
L 191.696379 -217.888935 
L 194.802131 -220.81251 
L 197.907882 -223.680258 
L 201.013633 -226.490366 
L 204.119385 -229.241268 
L 207.225136 -231.931656 
L 210.330888 -234.560472 
L 213.436639 -237.12691 
L 216.54239 -239.630412 
L 219.648142 -242.070651 
L 222.753893 -244.447526 
L 225.859645 -246.761133 
L 228.965396 -249.01175 
L 232.071147 -251.199803 
L 235.176899 -253.325838 
L 238.28265 -255.390485 
L 241.388402 -257.394424 
L 244.494153 -259.338344 
L 247.599904 -261.222913 
L 250.705656 -263.048735 
L 253.811407 -264.816318 
L 256.917159 -266.526042 
L 260.02291 -268.178123 
L 263.128661 -269.77259 
L 266.234413 -271.309253 
L 269.340164 -272.787685 
L 272.445915 -274.207195 
L 275.551667 -275.566811 
L 278.657418 -276.865269 
L 281.76317 -278.100996 
L 284.868921 -279.272104 
L 287.974672 -280.376388 
L 291.080424 -281.411325 
L 294.186175 -282.374086 
L 297.291927 -283.261543 
L 300.397678 -284.0703 
L 303.503429 -284.796719 
L 306.609181 -285.43696 
L 309.714932 -285.987036 
L 312.820684 -286.442872 
L 315.926435 -286.80037 
L 319.032186 -287.055491 
L 322.137938 -287.204335 
L 325.243689 -287.243218 
L 328.349441 -287.168758 
L 331.455192 -286.977946 
L 334.560943 -286.668205 
L 337.666695 -286.237447 
L 340.772446 -285.684103 
L 343.878197 -285.007147 
L 346.983949 -284.206103 
L 346.983949 -309.038716 
L 346.983949 -309.038716 
L 343.878197 -309.028217 
L 340.772446 -308.950295 
L 337.666695 -308.805518 
L 334.560943 -308.594295 
L 331.455192 -308.316858 
L 328.349441 -307.973256 
L 325.243689 -307.563362 
L 322.137938 -307.086887 
L 319.032186 -306.543416 
L 315.926435 -305.932442 
L 312.820684 -305.253413 
L 309.714932 -304.505778 
L 306.609181 -303.689034 
L 303.503429 -302.802766 
L 300.397678 -301.846682 
L 297.291927 -300.820641 
L 294.186175 -299.724671 
L 291.080424 -298.558977 
L 287.974672 -297.323949 
L 284.868921 -296.020153 
L 281.76317 -294.648322 
L 278.657418 -293.209345 
L 275.551667 -291.704249 
L 272.445915 -290.134178 
L 269.340164 -288.500377 
L 266.234413 -286.804169 
L 263.128661 -285.046936 
L 260.02291 -283.230099 
L 256.917159 -281.355097 
L 253.811407 -279.423371 
L 250.705656 -277.436348 
L 247.599904 -275.395421 
L 244.494153 -273.301935 
L 241.388402 -271.157176 
L 238.28265 -268.962354 
L 235.176899 -266.718593 
L 232.071147 -264.426924 
L 228.965396 -262.088275 
L 225.859645 -259.70347 
L 222.753893 -257.273222 
L 219.648142 -254.798146 
L 216.54239 -252.278758 
L 213.436639 -249.715493 
L 210.330888 -247.108719 
L 207.225136 -244.458761 
L 204.119385 -241.765925 
L 201.013633 -239.03053 
L 197.907882 -236.252934 
L 194.802131 -233.433571 
L 191.696379 -230.572979 
L 188.590628 -227.671832 
L 185.484877 -224.73097 
L 182.379125 -221.751422 
L 179.273374 -218.73443 
L 176.167622 -215.681468 
L 173.061871 -212.594258 
L 169.95612 -209.474781 
L 166.850368 -206.325286 
L 163.744617 -203.148299 
L 160.638865 -199.946624 
L 157.533114 -196.723344 
L 154.427363 -193.481826 
L 151.321611 -190.225711 
L 148.21586 -186.95892 
L 145.110108 -183.685647 
L 142.004357 -180.410351 
L 138.898606 -177.13776 
L 135.792854 -173.872856 
L 132.687103 -170.62088 
L 129.581351 -167.387316 
L 126.4756 -164.177895 
L 123.369849 -160.99858 
L 120.264097 -157.85556 
L 117.158346 -154.755241 
L 114.052595 -151.704232 
L 110.946843 -148.709326 
L 107.841092 -145.777478 
L 104.73534 -142.915776 
L 101.629589 -140.131402 
L 98.523838 -137.431584 
L 95.418086 -134.823538 
L 92.312335 -132.314398 
L 89.206583 -129.911134 
L 86.100832 -127.620469 
L 82.995081 -125.448779 
L 79.889329 -123.402008 
L 76.783578 -121.485574 
L 73.677826 -119.704296 
L 70.572075 -118.06233 
L 67.466324 -116.563126 
L 64.360572 -115.209405 
L 61.254821 -114.003153 
L 58.149069 -112.945633 
L 55.043318 -112.037409 
L 51.937567 -111.278384 
L 48.831815 -110.667836 
L 45.726064 -110.204467 
L 42.620313 -109.886441 
z
" id="m069fbbc575"/>
    </defs>
    <g clip-path="url(#p557c4aff6a)">
     <use style="fill:#e61a1a;fill-opacity:0.2;" x="0" xlink:href="#m069fbbc575" y="414.11625"/>
    </g>
   </g>
   <g id="PathCollection_1">
    <defs>
     <path d="M -3 3 
L 3 -3 
M -3 -3 
L 3 3 
" id="mb5510eb15b" style="stroke:#000000;stroke-width:1.5;"/>
    </defs>
    <g clip-path="url(#p557c4aff6a)">
     <use style="stroke:#000000;stroke-width:1.5;" x="201.713697" xlink:href="#mb5510eb15b" y="187.819271"/>
     <use style="stroke:#000000;stroke-width:1.5;" x="204.502688" xlink:href="#mb5510eb15b" y="197.343548"/>
     <use style="stroke:#000000;stroke-width:1.5;" x="204.860833" xlink:href="#mb5510eb15b" y="153.647342"/>
     <use style="stroke:#000000;stroke-width:1.5;" x="210.718224" xlink:href="#mb5510eb15b" y="185.929704"/>
     <use style="stroke:#000000;stroke-width:1.5;" x="219.833435" xlink:href="#mb5510eb15b" y="166.803205"/>
     <use style="stroke:#000000;stroke-width:1.5;" x="222.162105" xlink:href="#mb5510eb15b" y="144.233905"/>
     <use style="stroke:#000000;stroke-width:1.5;" x="228.840247" xlink:href="#mb5510eb15b" y="192.929612"/>
     <use style="stroke:#000000;stroke-width:1.5;" x="229.034873" xlink:href="#mb5510eb15b" y="164.676669"/>
     <use style="stroke:#000000;stroke-width:1.5;" x="233.028324" xlink:href="#mb5510eb15b" y="140.47105"/>
     <use style="stroke:#000000;stroke-width:1.5;" x="236.341488" xlink:href="#mb5510eb15b" y="103.014614"/>
     <use style="stroke:#000000;stroke-width:1.5;" x="236.463869" xlink:href="#mb5510eb15b" y="178.913387"/>
     <use style="stroke:#000000;stroke-width:1.5;" x="236.546087" xlink:href="#mb5510eb15b" y="158.385868"/>
     <use style="stroke:#000000;stroke-width:1.5;" x="246.548369" xlink:href="#mb5510eb15b" y="142.582799"/>
     <use style="stroke:#000000;stroke-width:1.5;" x="246.763145" xlink:href="#mb5510eb15b" y="176.337526"/>
     <use style="stroke:#000000;stroke-width:1.5;" x="248.375739" xlink:href="#mb5510eb15b" y="152.36827"/>
     <use style="stroke:#000000;stroke-width:1.5;" x="250.451869" xlink:href="#mb5510eb15b" y="138.127147"/>
     <use style="stroke:#000000;stroke-width:1.5;" x="273.035678" xlink:href="#mb5510eb15b" y="139.904114"/>
     <use style="stroke:#000000;stroke-width:1.5;" x="279.946589" xlink:href="#mb5510eb15b" y="133.360147"/>
     <use style="stroke:#000000;stroke-width:1.5;" x="286.014263" xlink:href="#mb5510eb15b" y="167.881955"/>
     <use style="stroke:#000000;stroke-width:1.5;" x="319.569109" xlink:href="#mb5510eb15b" y="118.989725"/>
     <use style="stroke:#000000;stroke-width:1.5;" x="320.94298" xlink:href="#mb5510eb15b" y="68.215264"/>
     <use style="stroke:#000000;stroke-width:1.5;" x="335.579462" xlink:href="#mb5510eb15b" y="73.834255"/>
     <use style="stroke:#000000;stroke-width:1.5;" x="340.438277" xlink:href="#mb5510eb15b" y="96.189214"/>
     <use style="stroke:#000000;stroke-width:1.5;" x="344.436991" xlink:href="#mb5510eb15b" y="86.46736"/>
     <use style="stroke:#000000;stroke-width:1.5;" x="345.557275" xlink:href="#mb5510eb15b" y="141.125649"/>
    </g>
   </g>
   <g id="PathCollection_2">
    <defs>
     <path d="M 0 3 
C 0.795609 3 1.55874 2.683901 2.12132 2.12132 
C 2.683901 1.55874 3 0.795609 3 0 
C 3 -0.795609 2.683901 -1.55874 2.12132 -2.12132 
C 1.55874 -2.683901 0.795609 -3 0 -3 
C -0.795609 -3 -1.55874 -2.683901 -2.12132 -2.12132 
C -2.683901 -1.55874 -3 -0.795609 -3 0 
C -3 0.795609 -2.683901 1.55874 -2.12132 2.12132 
C -1.55874 2.683901 -0.795609 3 0 3 
z
" id="mb016478866" style="stroke:#000000;"/>
    </defs>
    <g clip-path="url(#p557c4aff6a)">
     <use style="stroke:#000000;" x="43.3719" xlink:href="#mb016478866" y="322.777321"/>
     <use style="stroke:#000000;" x="59.51567" xlink:href="#mb016478866" y="307.784856"/>
     <use style="stroke:#000000;" x="65.941374" xlink:href="#mb016478866" y="348.576589"/>
     <use style="stroke:#000000;" x="70.902276" xlink:href="#mb016478866" y="281.646641"/>
     <use style="stroke:#000000;" x="72.564727" xlink:href="#mb016478866" y="358.737786"/>
     <use style="stroke:#000000;" x="73.336591" xlink:href="#mb016478866" y="278.987157"/>
     <use style="stroke:#000000;" x="77.101058" xlink:href="#mb016478866" y="263.73859"/>
     <use style="stroke:#000000;" x="86.118607" xlink:href="#mb016478866" y="317.540248"/>
     <use style="stroke:#000000;" x="105.338541" xlink:href="#mb016478866" y="335.568464"/>
     <use style="stroke:#000000;" x="117.7003" xlink:href="#mb016478866" y="285.883771"/>
     <use style="stroke:#000000;" x="127.868433" xlink:href="#mb016478866" y="268.810069"/>
     <use style="stroke:#000000;" x="130.367925" xlink:href="#mb016478866" y="198.191275"/>
     <use style="stroke:#000000;" x="135.184658" xlink:href="#mb016478866" y="276.753908"/>
     <use style="stroke:#000000;" x="139.316509" xlink:href="#mb016478866" y="234.339325"/>
     <use style="stroke:#000000;" x="141.8817" xlink:href="#mb016478866" y="207.020154"/>
     <use style="stroke:#000000;" x="142.19655" xlink:href="#mb016478866" y="241.764911"/>
     <use style="stroke:#000000;" x="167.118699" xlink:href="#mb016478866" y="222.582722"/>
     <use style="stroke:#000000;" x="167.702033" xlink:href="#mb016478866" y="238.700681"/>
     <use style="stroke:#000000;" x="169.917312" xlink:href="#mb016478866" y="151.014041"/>
     <use style="stroke:#000000;" x="170.407508" xlink:href="#mb016478866" y="225.499896"/>
     <use style="stroke:#000000;" x="172.685681" xlink:href="#mb016478866" y="206.645214"/>
     <use style="stroke:#000000;" x="173.552187" xlink:href="#mb016478866" y="180.472416"/>
     <use style="stroke:#000000;" x="176.102978" xlink:href="#mb016478866" y="223.656287"/>
     <use style="stroke:#000000;" x="193.29966" xlink:href="#mb016478866" y="177.314928"/>
     <use style="stroke:#000000;" x="194.299337" xlink:href="#mb016478866" y="144.815752"/>
    </g>
   </g>
   <g id="matplotlib.axis_1">
    <g id="xtick_1">
     <g id="line2d_1">
      <defs>
       <path d="M 0 0 
L 0 3.5 
" id="ma035724743" style="stroke:#000000;stroke-width:0.8;"/>
      </defs>
      <g>
       <use style="stroke:#000000;stroke-width:0.8;" x="42.620313" xlink:href="#ma035724743" y="376.56"/>
      </g>
     </g>
     <g id="text_1">
      <text style="font-family:DejaVu Sans;font-size:10px;font-style:normal;font-weight:normal;text-anchor:middle;" transform="rotate(-0, 42.620313, 391.158437)" x="42.620313" y="391.158437">−3</text>
     </g>
    </g>
    <g id="xtick_2">
     <g id="line2d_2">
      <g>
       <use style="stroke:#000000;stroke-width:0.8;" x="93.347585" xlink:href="#ma035724743" y="376.56"/>
      </g>
     </g>
     <g id="text_2">
      <text style="font-family:DejaVu Sans;font-size:10px;font-style:normal;font-weight:normal;text-anchor:middle;" transform="rotate(-0, 93.347585, 391.158437)" x="93.347585" y="391.158437">−2</text>
     </g>
    </g>
    <g id="xtick_3">
     <g id="line2d_3">
      <g>
       <use style="stroke:#000000;stroke-width:0.8;" x="144.074858" xlink:href="#ma035724743" y="376.56"/>
      </g>
     </g>
     <g id="text_3">
      <text style="font-family:DejaVu Sans;font-size:10px;font-style:normal;font-weight:normal;text-anchor:middle;" transform="rotate(-0, 144.074858, 391.158437)" x="144.074858" y="391.158437">−1</text>
     </g>
    </g>
    <g id="xtick_4">
     <g id="line2d_4">
      <g>
       <use style="stroke:#000000;stroke-width:0.8;" x="194.802131" xlink:href="#ma035724743" y="376.56"/>
      </g>
     </g>
     <g id="text_4">
      <text style="font-family:DejaVu Sans;font-size:10px;font-style:normal;font-weight:normal;text-anchor:middle;" transform="rotate(-0, 194.802131, 391.158437)" x="194.802131" y="391.158437">0</text>
     </g>
    </g>
    <g id="xtick_5">
     <g id="line2d_5">
      <g>
       <use style="stroke:#000000;stroke-width:0.8;" x="245.529403" xlink:href="#ma035724743" y="376.56"/>
      </g>
     </g>
     <g id="text_5">
      <text style="font-family:DejaVu Sans;font-size:10px;font-style:normal;font-weight:normal;text-anchor:middle;" transform="rotate(-0, 245.529403, 391.158437)" x="245.529403" y="391.158437">1</text>
     </g>
    </g>
    <g id="xtick_6">
     <g id="line2d_6">
      <g>
       <use style="stroke:#000000;stroke-width:0.8;" x="296.256676" xlink:href="#ma035724743" y="376.56"/>
      </g>
     </g>
     <g id="text_6">
      <text style="font-family:DejaVu Sans;font-size:10px;font-style:normal;font-weight:normal;text-anchor:middle;" transform="rotate(-0, 296.256676, 391.158437)" x="296.256676" y="391.158437">2</text>
     </g>
    </g>
    <g id="xtick_7">
     <g id="line2d_7">
      <g>
       <use style="stroke:#000000;stroke-width:0.8;" x="346.983949" xlink:href="#ma035724743" y="376.56"/>
      </g>
     </g>
     <g id="text_7">
      <text style="font-family:DejaVu Sans;font-size:10px;font-style:normal;font-weight:normal;text-anchor:middle;" transform="rotate(-0, 346.983949, 391.158437)" x="346.983949" y="391.158437">3</text>
     </g>
    </g>
    <g id="text_8">
     <text style="font-family:DejaVu Sans;font-size:10px;font-style:normal;font-weight:normal;text-anchor:middle;" transform="rotate(-0, 194.802131, 404.836562)" x="194.802131" y="404.836562">predictor</text>
    </g>
   </g>
   <g id="matplotlib.axis_2">
    <g id="ytick_1">
     <g id="line2d_8">
      <defs>
       <path d="M 0 0 
L -3.5 0 
" id="m44b9fd3231" style="stroke:#000000;stroke-width:0.8;"/>
      </defs>
      <g>
       <use style="stroke:#000000;stroke-width:0.8;" x="42.620313" xlink:href="#m44b9fd3231" y="375.13203"/>
      </g>
     </g>
     <g id="text_9">
      <text style="font-family:DejaVu Sans;font-size:10px;font-style:normal;font-weight:normal;text-anchor:end;" transform="rotate(-0, 35.620313, 378.931249)" x="35.620313" y="378.931249">−3</text>
     </g>
    </g>
    <g id="ytick_2">
     <g id="line2d_9">
      <g>
       <use style="stroke:#000000;stroke-width:0.8;" x="42.620313" xlink:href="#m44b9fd3231" y="334.760576"/>
      </g>
     </g>
     <g id="text_10">
      <text style="font-family:DejaVu Sans;font-size:10px;font-style:normal;font-weight:normal;text-anchor:end;" transform="rotate(-0, 35.620313, 338.559795)" x="35.620313" y="338.559795">−2</text>
     </g>
    </g>
    <g id="ytick_3">
     <g id="line2d_10">
      <g>
       <use style="stroke:#000000;stroke-width:0.8;" x="42.620313" xlink:href="#m44b9fd3231" y="294.389122"/>
      </g>
     </g>
     <g id="text_11">
      <text style="font-family:DejaVu Sans;font-size:10px;font-style:normal;font-weight:normal;text-anchor:end;" transform="rotate(-0, 35.620313, 298.188341)" x="35.620313" y="298.188341">−1</text>
     </g>
    </g>
    <g id="ytick_4">
     <g id="line2d_11">
      <g>
       <use style="stroke:#000000;stroke-width:0.8;" x="42.620313" xlink:href="#m44b9fd3231" y="254.017668"/>
      </g>
     </g>
     <g id="text_12">
      <text style="font-family:DejaVu Sans;font-size:10px;font-style:normal;font-weight:normal;text-anchor:end;" transform="rotate(-0, 35.620313, 257.816886)" x="35.620313" y="257.816886">0</text>
     </g>
    </g>
    <g id="ytick_5">
     <g id="line2d_12">
      <g>
       <use style="stroke:#000000;stroke-width:0.8;" x="42.620313" xlink:href="#m44b9fd3231" y="213.646213"/>
      </g>
     </g>
     <g id="text_13">
      <text style="font-family:DejaVu Sans;font-size:10px;font-style:normal;font-weight:normal;text-anchor:end;" transform="rotate(-0, 35.620313, 217.445432)" x="35.620313" y="217.445432">1</text>
     </g>
    </g>
    <g id="ytick_6">
     <g id="line2d_13">
      <g>
       <use style="stroke:#000000;stroke-width:0.8;" x="42.620313" xlink:href="#m44b9fd3231" y="173.274759"/>
      </g>
     </g>
     <g id="text_14">
      <text style="font-family:DejaVu Sans;font-size:10px;font-style:normal;font-weight:normal;text-anchor:end;" transform="rotate(-0, 35.620313, 177.073978)" x="35.620313" y="177.073978">2</text>
     </g>
    </g>
    <g id="ytick_7">
     <g id="line2d_14">
      <g>
       <use style="stroke:#000000;stroke-width:0.8;" x="42.620313" xlink:href="#m44b9fd3231" y="132.903305"/>
      </g>
     </g>
     <g id="text_15">
      <text style="font-family:DejaVu Sans;font-size:10px;font-style:normal;font-weight:normal;text-anchor:end;" transform="rotate(-0, 35.620313, 136.702523)" x="35.620313" y="136.702523">3</text>
     </g>
    </g>
    <g id="ytick_8">
     <g id="line2d_15">
      <g>
       <use style="stroke:#000000;stroke-width:0.8;" x="42.620313" xlink:href="#m44b9fd3231" y="92.53185"/>
      </g>
     </g>
     <g id="text_16">
      <text style="font-family:DejaVu Sans;font-size:10px;font-style:normal;font-weight:normal;text-anchor:end;" transform="rotate(-0, 35.620313, 96.331069)" x="35.620313" y="96.331069">4</text>
     </g>
    </g>
    <g id="ytick_9">
     <g id="line2d_16">
      <g>
       <use style="stroke:#000000;stroke-width:0.8;" x="42.620313" xlink:href="#m44b9fd3231" y="52.160396"/>
      </g>
     </g>
     <g id="text_17">
      <text style="font-family:DejaVu Sans;font-size:10px;font-style:normal;font-weight:normal;text-anchor:end;" transform="rotate(-0, 35.620313, 55.959615)" x="35.620313" y="55.959615">5</text>
     </g>
    </g>
    <g id="text_18">
     <text style="font-family:DejaVu Sans;font-size:10px;font-style:normal;font-weight:normal;text-anchor:middle;" transform="rotate(-90, 14.798438, 213.48)" x="14.798438" y="213.48">response</text>
    </g>
   </g>
   <g id="line2d_17">
    <path clip-path="url(#p557c4aff6a)" d="M 42.620313 317.338604 
L 45.726064 316.493034 
L 48.831815 315.527478 
L 51.937567 314.441627 
L 55.043318 313.235525 
L 58.149069 311.909575 
L 61.254821 310.464539 
L 64.360572 308.901539 
L 67.466324 307.222056 
L 70.572075 305.427918 
L 73.677826 303.521304 
L 76.783578 301.504726 
L 79.889329 299.381027 
L 82.995081 297.15336 
L 86.100832 294.825182 
L 89.206583 292.400233 
L 92.312335 289.882523 
L 95.418086 287.276307 
L 98.523838 284.586072 
L 101.629589 281.816509 
L 104.73534 278.972495 
L 107.841092 276.059068 
L 110.946843 273.081401 
L 114.052595 270.044781 
L 117.158346 266.954579 
L 120.264097 263.816228 
L 123.369849 260.635197 
L 126.4756 257.416963 
L 129.581351 254.166988 
L 132.687103 250.890697 
L 135.792854 247.593447 
L 138.898606 244.280511 
L 142.004357 240.957054 
L 145.110108 237.628109 
L 148.21586 234.298563 
L 151.321611 230.973136 
L 154.427363 227.656365 
L 157.533114 224.35259 
L 160.638865 221.065942 
L 163.744617 217.800332 
L 166.850368 214.559441 
L 169.95612 211.346717 
L 173.061871 208.165366 
L 176.167622 205.018353 
L 179.273374 201.9084 
L 182.379125 198.837989 
L 185.484877 195.809363 
L 188.590628 192.824535 
L 191.696379 189.885293 
L 194.802131 186.99321 
L 197.907882 184.149654 
L 201.013633 181.355802 
L 204.119385 178.612653 
L 207.225136 175.921042 
L 210.330888 173.281655 
L 213.436639 170.695048 
L 216.54239 168.161665 
L 219.648142 165.681851 
L 222.753893 163.255876 
L 225.859645 160.883949 
L 228.965396 158.566237 
L 232.071147 156.302886 
L 235.176899 154.094034 
L 238.28265 151.939831 
L 241.388402 149.84045 
L 244.494153 147.79611 
L 247.599904 145.807083 
L 250.705656 143.873708 
L 253.811407 141.996405 
L 256.917159 140.175681 
L 260.02291 138.412139 
L 263.128661 136.706487 
L 266.234413 135.059539 
L 269.340164 133.472219 
L 272.445915 131.945564 
L 275.551667 130.48072 
L 278.657418 129.078943 
L 281.76317 127.741591 
L 284.868921 126.470122 
L 287.974672 125.266081 
L 291.080424 124.131099 
L 294.186175 123.066872 
L 297.291927 122.075158 
L 300.397678 121.157759 
L 303.503429 120.316508 
L 306.609181 119.553253 
L 309.714932 118.869843 
L 312.820684 118.268108 
L 315.926435 117.749844 
L 319.032186 117.316796 
L 322.137938 116.970639 
L 325.243689 116.71296 
L 328.349441 116.545243 
L 331.455192 116.468848 
L 334.560943 116.485 
L 337.666695 116.594767 
L 340.772446 116.799051 
L 343.878197 117.098568 
L 346.983949 117.493841 
" style="fill:none;opacity:0.9;stroke:#e61a1a;stroke-linecap:square;stroke-width:1.5;"/>
   </g>
   <g id="line2d_18">
    <path clip-path="url(#p557c4aff6a)" d="M 194.802131 376.56 
L 194.802131 50.4 
" style="fill:none;stroke:#000000;stroke-dasharray:5.55,2.4;stroke-dashoffset:0;stroke-width:1.5;"/>
   </g>
   <g id="patch_3">
    <path d="M 42.620313 376.56 
L 42.620313 50.4 
" style="fill:none;stroke:#000000;stroke-linecap:square;stroke-linejoin:miter;stroke-width:0.8;"/>
   </g>
   <g id="patch_4">
    <path d="M 346.983949 376.56 
L 346.983949 50.4 
" style="fill:none;stroke:#000000;stroke-linecap:square;stroke-linejoin:miter;stroke-width:0.8;"/>
   </g>
   <g id="patch_5">
    <path d="M 42.620313 376.56 
L 346.983949 376.56 
" style="fill:none;stroke:#000000;stroke-linecap:square;stroke-linejoin:miter;stroke-width:0.8;"/>
   </g>
   <g id="patch_6">
    <path d="M 42.620313 50.4 
L 346.983949 50.4 
" style="fill:none;stroke:#000000;stroke-linecap:square;stroke-linejoin:miter;stroke-width:0.8;"/>
   </g>
   <g id="text_19">
    <text style="font-family:DejaVu Sans;font-size:12px;font-style:normal;font-weight:normal;text-anchor:middle;" transform="rotate(-0, 194.802131, 44.4)" x="194.802131" y="44.4">Continuous model, (l,s) = (2.0,0.6)</text>
   </g>
  </g>
  <g id="axes_2">
   <g id="patch_7">
    <path d="M 407.856676 376.56 
L 712.220312 376.56 
L 712.220312 50.4 
L 407.856676 50.4 
z
" style="fill:#ffffff;"/>
   </g>
   <g id="PolyCollection_2">
    <defs>
     <path d="M 407.856676 -119.160315 
L 407.856676 -87.410582 
L 410.962428 -87.750392 
L 414.068179 -88.200774 
L 417.17393 -88.763886 
L 420.279682 -89.441823 
L 423.385433 -90.236872 
L 426.491184 -91.151805 
L 429.596936 -92.190193 
L 432.702687 -93.35666 
L 435.808439 -94.657015 
L 438.91419 -96.098197 
L 442.019941 -97.688013 
L 445.125693 -99.434677 
L 448.231444 -101.346221 
L 451.337196 -103.429875 
L 454.442947 -105.691495 
L 457.548698 -108.135101 
L 460.65445 -110.762552 
L 463.760201 -113.573361 
L 466.865953 -116.564623 
L 469.971704 -119.731044 
L 473.077455 -123.065019 
L 476.183207 -126.55677 
L 479.288958 -130.194495 
L 482.39471 -133.964529 
L 485.500461 -137.851517 
L 488.606212 -141.838565 
L 491.711964 -145.907397 
L 494.817715 -150.038482 
L 497.923466 -154.21116 
L 501.029218 -158.403743 
L 504.134969 -162.593604 
L 507.240721 -166.757264 
L 510.346472 -170.87048 
L 513.452223 -174.908357 
L 516.557975 -178.845514 
L 519.663726 -182.656328 
L 522.769478 -186.315282 
L 525.875229 -189.797451 
L 528.98098 -193.079097 
L 532.086732 -196.138341 
L 535.192483 -198.95582 
L 538.298235 -201.515232 
L 541.403986 -203.803668 
L 544.509737 -205.811707 
L 547.615489 -207.533283 
L 550.72124 -208.965398 
L 553.826992 -210.107753 
L 556.932743 -210.962379 
L 560.038494 -211.53331 
L 560.038494 -238.859646 
L 560.038494 -238.859646 
L 556.932743 -236.737072 
L 553.826992 -234.441697 
L 550.72124 -231.981682 
L 547.615489 -229.366096 
L 544.509737 -226.60459 
L 541.403986 -223.707003 
L 538.298235 -220.682946 
L 535.192483 -217.541436 
L 532.086732 -214.290657 
L 528.98098 -210.937925 
L 525.875229 -207.489867 
L 522.769478 -203.95279 
L 519.663726 -200.333133 
L 516.557975 -196.637924 
L 513.452223 -192.875141 
L 510.346472 -189.053943 
L 507.240721 -185.184758 
L 504.134969 -181.279258 
L 501.029218 -177.350239 
L 497.923466 -173.411457 
L 494.817715 -169.477434 
L 491.711964 -165.563261 
L 488.606212 -161.684414 
L 485.500461 -157.856595 
L 482.39471 -154.09559 
L 479.288958 -150.417168 
L 476.183207 -146.837 
L 473.077455 -143.370613 
L 469.971704 -140.033365 
L 466.865953 -136.840443 
L 463.760201 -133.806874 
L 460.65445 -130.94753 
L 457.548698 -128.277122 
L 454.442947 -125.810152 
L 451.337196 -123.560794 
L 448.231444 -121.542694 
L 445.125693 -119.76864 
L 442.019941 -118.250135 
L 438.91419 -116.996871 
L 435.808439 -116.016174 
L 432.702687 -115.312517 
L 429.596936 -114.887159 
L 426.491184 -114.738015 
L 423.385433 -114.859732 
L 420.279682 -115.243985 
L 417.17393 -115.879889 
L 414.068179 -116.754481 
L 410.962428 -117.853199 
L 407.856676 -119.160315 
z
" id="m329d12d8f8"/>
    </defs>
    <g clip-path="url(#p9226cf795b)">
     <use style="fill:#1ae61a;fill-opacity:0.2;" x="0" xlink:href="#m329d12d8f8" y="414.11625"/>
    </g>
   </g>
   <g id="PolyCollection_3">
    <defs>
     <path d="M 560.038494 -241.605929 
L 560.038494 -222.655612 
L 563.144246 -224.92847 
L 566.249997 -227.19041 
L 569.355748 -229.438732 
L 572.4615 -231.670728 
L 575.567251 -233.883705 
L 578.673003 -236.075009 
L 581.778754 -238.242058 
L 584.884505 -240.382379 
L 587.990257 -242.493635 
L 591.096008 -244.573665 
L 594.20176 -246.620511 
L 597.307511 -248.632435 
L 600.413262 -250.607938 
L 603.519014 -252.545752 
L 606.624765 -254.444831 
L 609.730517 -256.304319 
L 612.836268 -258.123521 
L 615.942019 -259.901852 
L 619.047771 -261.6388 
L 622.153522 -263.333873 
L 625.259274 -264.986561 
L 628.365025 -266.5963 
L 631.470776 -268.162446 
L 634.576528 -269.684253 
L 637.682279 -271.160861 
L 640.78803 -272.591289 
L 643.893782 -273.974436 
L 646.999533 -275.309087 
L 650.105285 -276.59392 
L 653.211036 -277.827517 
L 656.316787 -279.00838 
L 659.422539 -280.134944 
L 662.52829 -281.205594 
L 665.634042 -282.218685 
L 668.739793 -283.172554 
L 671.845544 -284.065543 
L 674.951296 -284.896014 
L 678.057047 -285.662366 
L 681.162799 -286.363054 
L 684.26855 -286.996603 
L 687.374301 -287.56162 
L 690.480053 -288.056812 
L 693.585804 -288.480997 
L 696.691556 -288.833112 
L 699.797307 -289.112223 
L 702.903058 -289.317532 
L 706.00881 -289.448383 
L 709.114561 -289.504265 
L 712.220312 -289.484814 
L 712.220312 -311.279193 
L 712.220312 -311.279193 
L 709.114561 -310.715328 
L 706.00881 -310.09943 
L 702.903058 -309.431738 
L 699.797307 -308.712514 
L 696.691556 -307.94204 
L 693.585804 -307.12062 
L 690.480053 -306.248585 
L 687.374301 -305.326297 
L 684.26855 -304.354156 
L 681.162799 -303.332604 
L 678.057047 -302.262139 
L 674.951296 -301.143318 
L 671.845544 -299.976776 
L 668.739793 -298.76323 
L 665.634042 -297.503495 
L 662.52829 -296.198497 
L 659.422539 -294.849281 
L 656.316787 -293.45703 
L 653.211036 -292.023072 
L 650.105285 -290.548893 
L 646.999533 -289.036149 
L 643.893782 -287.486672 
L 640.78803 -285.902481 
L 637.682279 -284.285785 
L 634.576528 -282.638984 
L 631.470776 -280.964672 
L 628.365025 -279.265623 
L 625.259274 -277.544783 
L 622.153522 -275.805252 
L 619.047771 -274.05025 
L 615.942019 -272.283091 
L 612.836268 -270.507133 
L 609.730517 -268.725735 
L 606.624765 -266.9422 
L 603.519014 -265.159727 
L 600.413262 -263.381358 
L 597.307511 -261.609937 
L 594.20176 -259.848074 
L 591.096008 -258.098128 
L 587.990257 -256.362196 
L 584.884505 -254.642122 
L 581.778754 -252.939506 
L 578.673003 -251.255734 
L 575.567251 -249.592001 
L 572.4615 -247.949338 
L 569.355748 -246.328647 
L 566.249997 -244.730721 
L 563.144246 -243.156268 
L 560.038494 -241.605929 
z
" id="ma9392325c1"/>
    </defs>
    <g clip-path="url(#p9226cf795b)">
     <use style="fill:#1ae61a;fill-opacity:0.2;" x="0" xlink:href="#ma9392325c1" y="414.11625"/>
    </g>
   </g>
   <g id="PathCollection_3">
    <g clip-path="url(#p9226cf795b)">
     <use style="stroke:#000000;stroke-width:1.5;" x="566.950061" xlink:href="#mb5510eb15b" y="187.819271"/>
     <use style="stroke:#000000;stroke-width:1.5;" x="569.739052" xlink:href="#mb5510eb15b" y="197.343548"/>
     <use style="stroke:#000000;stroke-width:1.5;" x="570.097197" xlink:href="#mb5510eb15b" y="153.647342"/>
     <use style="stroke:#000000;stroke-width:1.5;" x="575.954588" xlink:href="#mb5510eb15b" y="185.929704"/>
     <use style="stroke:#000000;stroke-width:1.5;" x="585.069799" xlink:href="#mb5510eb15b" y="166.803205"/>
     <use style="stroke:#000000;stroke-width:1.5;" x="587.398469" xlink:href="#mb5510eb15b" y="144.233905"/>
     <use style="stroke:#000000;stroke-width:1.5;" x="594.07661" xlink:href="#mb5510eb15b" y="192.929612"/>
     <use style="stroke:#000000;stroke-width:1.5;" x="594.271236" xlink:href="#mb5510eb15b" y="164.676669"/>
     <use style="stroke:#000000;stroke-width:1.5;" x="598.264688" xlink:href="#mb5510eb15b" y="140.47105"/>
     <use style="stroke:#000000;stroke-width:1.5;" x="601.577851" xlink:href="#mb5510eb15b" y="103.014614"/>
     <use style="stroke:#000000;stroke-width:1.5;" x="601.700233" xlink:href="#mb5510eb15b" y="178.913387"/>
     <use style="stroke:#000000;stroke-width:1.5;" x="601.78245" xlink:href="#mb5510eb15b" y="158.385868"/>
     <use style="stroke:#000000;stroke-width:1.5;" x="611.784732" xlink:href="#mb5510eb15b" y="142.582799"/>
     <use style="stroke:#000000;stroke-width:1.5;" x="611.999508" xlink:href="#mb5510eb15b" y="176.337526"/>
     <use style="stroke:#000000;stroke-width:1.5;" x="613.612103" xlink:href="#mb5510eb15b" y="152.36827"/>
     <use style="stroke:#000000;stroke-width:1.5;" x="615.688233" xlink:href="#mb5510eb15b" y="138.127147"/>
     <use style="stroke:#000000;stroke-width:1.5;" x="638.272042" xlink:href="#mb5510eb15b" y="139.904114"/>
     <use style="stroke:#000000;stroke-width:1.5;" x="645.182953" xlink:href="#mb5510eb15b" y="133.360147"/>
     <use style="stroke:#000000;stroke-width:1.5;" x="651.250627" xlink:href="#mb5510eb15b" y="167.881955"/>
     <use style="stroke:#000000;stroke-width:1.5;" x="684.805473" xlink:href="#mb5510eb15b" y="118.989725"/>
     <use style="stroke:#000000;stroke-width:1.5;" x="686.179343" xlink:href="#mb5510eb15b" y="68.215264"/>
     <use style="stroke:#000000;stroke-width:1.5;" x="700.815826" xlink:href="#mb5510eb15b" y="73.834255"/>
     <use style="stroke:#000000;stroke-width:1.5;" x="705.67464" xlink:href="#mb5510eb15b" y="96.189214"/>
     <use style="stroke:#000000;stroke-width:1.5;" x="709.673354" xlink:href="#mb5510eb15b" y="86.46736"/>
     <use style="stroke:#000000;stroke-width:1.5;" x="710.793639" xlink:href="#mb5510eb15b" y="141.125649"/>
    </g>
   </g>
   <g id="PathCollection_4">
    <g clip-path="url(#p9226cf795b)">
     <use style="stroke:#000000;" x="408.608263" xlink:href="#mb016478866" y="322.777321"/>
     <use style="stroke:#000000;" x="424.752033" xlink:href="#mb016478866" y="307.784856"/>
     <use style="stroke:#000000;" x="431.177738" xlink:href="#mb016478866" y="348.576589"/>
     <use style="stroke:#000000;" x="436.138639" xlink:href="#mb016478866" y="281.646641"/>
     <use style="stroke:#000000;" x="437.801091" xlink:href="#mb016478866" y="358.737786"/>
     <use style="stroke:#000000;" x="438.572955" xlink:href="#mb016478866" y="278.987157"/>
     <use style="stroke:#000000;" x="442.337421" xlink:href="#mb016478866" y="263.73859"/>
     <use style="stroke:#000000;" x="451.35497" xlink:href="#mb016478866" y="317.540248"/>
     <use style="stroke:#000000;" x="470.574905" xlink:href="#mb016478866" y="335.568464"/>
     <use style="stroke:#000000;" x="482.936664" xlink:href="#mb016478866" y="285.883771"/>
     <use style="stroke:#000000;" x="493.104796" xlink:href="#mb016478866" y="268.810069"/>
     <use style="stroke:#000000;" x="495.604288" xlink:href="#mb016478866" y="198.191275"/>
     <use style="stroke:#000000;" x="500.421021" xlink:href="#mb016478866" y="276.753908"/>
     <use style="stroke:#000000;" x="504.552873" xlink:href="#mb016478866" y="234.339325"/>
     <use style="stroke:#000000;" x="507.118063" xlink:href="#mb016478866" y="207.020154"/>
     <use style="stroke:#000000;" x="507.432914" xlink:href="#mb016478866" y="241.764911"/>
     <use style="stroke:#000000;" x="532.355063" xlink:href="#mb016478866" y="222.582722"/>
     <use style="stroke:#000000;" x="532.938397" xlink:href="#mb016478866" y="238.700681"/>
     <use style="stroke:#000000;" x="535.153675" xlink:href="#mb016478866" y="151.014041"/>
     <use style="stroke:#000000;" x="535.643871" xlink:href="#mb016478866" y="225.499896"/>
     <use style="stroke:#000000;" x="537.922045" xlink:href="#mb016478866" y="206.645214"/>
     <use style="stroke:#000000;" x="538.788551" xlink:href="#mb016478866" y="180.472416"/>
     <use style="stroke:#000000;" x="541.339342" xlink:href="#mb016478866" y="223.656287"/>
     <use style="stroke:#000000;" x="558.536024" xlink:href="#mb016478866" y="177.314928"/>
     <use style="stroke:#000000;" x="559.535701" xlink:href="#mb016478866" y="144.815752"/>
    </g>
   </g>
   <g id="matplotlib.axis_3">
    <g id="xtick_8">
     <g id="line2d_19">
      <g>
       <use style="stroke:#000000;stroke-width:0.8;" x="407.856676" xlink:href="#ma035724743" y="376.56"/>
      </g>
     </g>
     <g id="text_20">
      <text style="font-family:DejaVu Sans;font-size:10px;font-style:normal;font-weight:normal;text-anchor:middle;" transform="rotate(-0, 407.856676, 391.158437)" x="407.856676" y="391.158437">−3</text>
     </g>
    </g>
    <g id="xtick_9">
     <g id="line2d_20">
      <g>
       <use style="stroke:#000000;stroke-width:0.8;" x="458.583949" xlink:href="#ma035724743" y="376.56"/>
      </g>
     </g>
     <g id="text_21">
      <text style="font-family:DejaVu Sans;font-size:10px;font-style:normal;font-weight:normal;text-anchor:middle;" transform="rotate(-0, 458.583949, 391.158437)" x="458.583949" y="391.158437">−2</text>
     </g>
    </g>
    <g id="xtick_10">
     <g id="line2d_21">
      <g>
       <use style="stroke:#000000;stroke-width:0.8;" x="509.311222" xlink:href="#ma035724743" y="376.56"/>
      </g>
     </g>
     <g id="text_22">
      <text style="font-family:DejaVu Sans;font-size:10px;font-style:normal;font-weight:normal;text-anchor:middle;" transform="rotate(-0, 509.311222, 391.158437)" x="509.311222" y="391.158437">−1</text>
     </g>
    </g>
    <g id="xtick_11">
     <g id="line2d_22">
      <g>
       <use style="stroke:#000000;stroke-width:0.8;" x="560.038494" xlink:href="#ma035724743" y="376.56"/>
      </g>
     </g>
     <g id="text_23">
      <text style="font-family:DejaVu Sans;font-size:10px;font-style:normal;font-weight:normal;text-anchor:middle;" transform="rotate(-0, 560.038494, 391.158437)" x="560.038494" y="391.158437">0</text>
     </g>
    </g>
    <g id="xtick_12">
     <g id="line2d_23">
      <g>
       <use style="stroke:#000000;stroke-width:0.8;" x="610.765767" xlink:href="#ma035724743" y="376.56"/>
      </g>
     </g>
     <g id="text_24">
      <text style="font-family:DejaVu Sans;font-size:10px;font-style:normal;font-weight:normal;text-anchor:middle;" transform="rotate(-0, 610.765767, 391.158437)" x="610.765767" y="391.158437">1</text>
     </g>
    </g>
    <g id="xtick_13">
     <g id="line2d_24">
      <g>
       <use style="stroke:#000000;stroke-width:0.8;" x="661.49304" xlink:href="#ma035724743" y="376.56"/>
      </g>
     </g>
     <g id="text_25">
      <text style="font-family:DejaVu Sans;font-size:10px;font-style:normal;font-weight:normal;text-anchor:middle;" transform="rotate(-0, 661.49304, 391.158437)" x="661.49304" y="391.158437">2</text>
     </g>
    </g>
    <g id="xtick_14">
     <g id="line2d_25">
      <g>
       <use style="stroke:#000000;stroke-width:0.8;" x="712.220312" xlink:href="#ma035724743" y="376.56"/>
      </g>
     </g>
     <g id="text_26">
      <text style="font-family:DejaVu Sans;font-size:10px;font-style:normal;font-weight:normal;text-anchor:middle;" transform="rotate(-0, 712.220312, 391.158437)" x="712.220312" y="391.158437">3</text>
     </g>
    </g>
    <g id="text_27">
     <text style="font-family:DejaVu Sans;font-size:10px;font-style:normal;font-weight:normal;text-anchor:middle;" transform="rotate(-0, 560.038494, 404.836562)" x="560.038494" y="404.836562">predictor</text>
    </g>
   </g>
   <g id="matplotlib.axis_4">
    <g id="ytick_10">
     <g id="line2d_26">
      <g>
       <use style="stroke:#000000;stroke-width:0.8;" x="407.856676" xlink:href="#m44b9fd3231" y="375.13203"/>
      </g>
     </g>
    </g>
    <g id="ytick_11">
     <g id="line2d_27">
      <g>
       <use style="stroke:#000000;stroke-width:0.8;" x="407.856676" xlink:href="#m44b9fd3231" y="334.760576"/>
      </g>
     </g>
    </g>
    <g id="ytick_12">
     <g id="line2d_28">
      <g>
       <use style="stroke:#000000;stroke-width:0.8;" x="407.856676" xlink:href="#m44b9fd3231" y="294.389122"/>
      </g>
     </g>
    </g>
    <g id="ytick_13">
     <g id="line2d_29">
      <g>
       <use style="stroke:#000000;stroke-width:0.8;" x="407.856676" xlink:href="#m44b9fd3231" y="254.017668"/>
      </g>
     </g>
    </g>
    <g id="ytick_14">
     <g id="line2d_30">
      <g>
       <use style="stroke:#000000;stroke-width:0.8;" x="407.856676" xlink:href="#m44b9fd3231" y="213.646213"/>
      </g>
     </g>
    </g>
    <g id="ytick_15">
     <g id="line2d_31">
      <g>
       <use style="stroke:#000000;stroke-width:0.8;" x="407.856676" xlink:href="#m44b9fd3231" y="173.274759"/>
      </g>
     </g>
    </g>
    <g id="ytick_16">
     <g id="line2d_32">
      <g>
       <use style="stroke:#000000;stroke-width:0.8;" x="407.856676" xlink:href="#m44b9fd3231" y="132.903305"/>
      </g>
     </g>
    </g>
    <g id="ytick_17">
     <g id="line2d_33">
      <g>
       <use style="stroke:#000000;stroke-width:0.8;" x="407.856676" xlink:href="#m44b9fd3231" y="92.53185"/>
      </g>
     </g>
    </g>
    <g id="ytick_18">
     <g id="line2d_34">
      <g>
       <use style="stroke:#000000;stroke-width:0.8;" x="407.856676" xlink:href="#m44b9fd3231" y="52.160396"/>
      </g>
     </g>
    </g>
    <g id="text_28">
     <text style="font-family:DejaVu Sans;font-size:10px;font-style:normal;font-weight:normal;text-anchor:middle;" transform="rotate(-90, 401.776989, 213.48)" x="401.776989" y="213.48">response</text>
    </g>
   </g>
   <g id="line2d_35">
    <path clip-path="url(#p9226cf795b)" d="M 407.856676 310.830802 
L 410.962428 311.314454 
L 414.068179 311.638622 
L 417.17393 311.794362 
L 420.279682 311.773346 
L 423.385433 311.567948 
L 426.491184 311.17134 
L 429.596936 310.577574 
L 432.702687 309.781661 
L 435.808439 308.779655 
L 438.91419 307.568716 
L 442.019941 306.147176 
L 445.125693 304.514591 
L 448.231444 302.671793 
L 451.337196 300.620915 
L 454.442947 298.365427 
L 457.548698 295.910138 
L 460.65445 293.261209 
L 463.760201 290.426133 
L 466.865953 287.413717 
L 469.971704 284.234046 
L 473.077455 280.898434 
L 476.183207 277.419365 
L 479.288958 273.810419 
L 482.39471 270.08619 
L 485.500461 266.262194 
L 488.606212 262.35476 
L 491.711964 258.380921 
L 494.817715 254.358292 
L 497.923466 250.304941 
L 501.029218 246.239259 
L 504.134969 242.179819 
L 507.240721 238.145239 
L 510.346472 234.154039 
L 513.452223 230.224501 
L 516.557975 226.374531 
L 519.663726 222.62152 
L 522.769478 218.982214 
L 525.875229 215.472591 
L 528.98098 212.107739 
L 532.086732 208.901751 
L 535.192483 205.867622 
L 538.298235 203.017161 
L 541.403986 200.360915 
L 544.509737 197.908102 
L 547.615489 195.66656 
L 550.72124 193.64271 
L 553.826992 191.841525 
L 556.932743 190.266524 
L 560.038494 188.919772 
" style="fill:none;opacity:0.9;stroke:#1ae61a;stroke-linecap:square;stroke-width:1.5;"/>
   </g>
   <g id="line2d_36">
    <path clip-path="url(#p9226cf795b)" d="M 560.038494 181.98548 
L 563.144246 180.073881 
L 566.249997 178.155685 
L 569.355748 176.23256 
L 572.4615 174.306217 
L 575.567251 172.378397 
L 578.673003 170.450879 
L 581.778754 168.525468 
L 584.884505 166.604 
L 587.990257 164.688334 
L 591.096008 162.780353 
L 594.20176 160.881958 
L 597.307511 158.995064 
L 600.413262 157.121602 
L 603.519014 155.26351 
L 606.624765 153.422735 
L 609.730517 151.601223 
L 612.836268 149.800923 
L 615.942019 148.023778 
L 619.047771 146.271725 
L 622.153522 144.546688 
L 625.259274 142.850578 
L 628.365025 141.185289 
L 631.470776 139.552691 
L 634.576528 137.954631 
L 637.682279 136.392927 
L 640.78803 134.869365 
L 643.893782 133.385696 
L 646.999533 131.943632 
L 650.105285 130.544843 
L 653.211036 129.190955 
L 656.316787 127.883545 
L 659.422539 126.624137 
L 662.52829 125.414204 
L 665.634042 124.25516 
L 668.739793 123.148358 
L 671.845544 122.095091 
L 674.951296 121.096584 
L 678.057047 120.153998 
L 681.162799 119.268421 
L 684.26855 118.440871 
L 687.374301 117.672291 
L 690.480053 116.963551 
L 693.585804 116.315442 
L 696.691556 115.728674 
L 699.797307 115.203882 
L 702.903058 114.741615 
L 706.00881 114.342343 
L 709.114561 114.006453 
L 712.220312 113.734247 
" style="fill:none;opacity:0.9;stroke:#1ae61a;stroke-linecap:square;stroke-width:1.5;"/>
   </g>
   <g id="line2d_37">
    <path clip-path="url(#p9226cf795b)" d="M 560.038494 376.56 
L 560.038494 50.4 
" style="fill:none;stroke:#000000;stroke-dasharray:5.55,2.4;stroke-dashoffset:0;stroke-width:1.5;"/>
   </g>
   <g id="patch_8">
    <path d="M 407.856676 376.56 
L 407.856676 50.4 
" style="fill:none;stroke:#000000;stroke-linecap:square;stroke-linejoin:miter;stroke-width:0.8;"/>
   </g>
   <g id="patch_9">
    <path d="M 712.220312 376.56 
L 712.220312 50.4 
" style="fill:none;stroke:#000000;stroke-linecap:square;stroke-linejoin:miter;stroke-width:0.8;"/>
   </g>
   <g id="patch_10">
    <path d="M 407.856676 376.56 
L 712.220312 376.56 
" style="fill:none;stroke:#000000;stroke-linecap:square;stroke-linejoin:miter;stroke-width:0.8;"/>
   </g>
   <g id="patch_11">
    <path d="M 407.856676 50.4 
L 712.220312 50.4 
" style="fill:none;stroke:#000000;stroke-linecap:square;stroke-linejoin:miter;stroke-width:0.8;"/>
   </g>
   <g id="text_29">
    <text style="font-family:DejaVu Sans;font-size:12px;font-style:normal;font-weight:normal;text-anchor:middle;" transform="rotate(-0, 560.038494, 44.4)" x="560.038494" y="44.4">Discontinuous model, (l,s)_1 = (1.4,0.7) &amp; (l,s)_2 = (3.0,0.5) </text>
   </g>
  </g>
  <g id="text_30">
   <text style="font-family:DejaVu Sans;font-size:16px;font-style:normal;font-weight:normal;text-anchor:middle;" transform="rotate(-0, 366.620313, 19.3575)" x="366.620313" y="19.3575">Log Bayes factor in favor of discontinuity = -2.84</text>
  </g>
 </g>
 <defs>
  <clipPath id="p557c4aff6a">
   <rect height="326.16" width="304.363636" x="42.620313" y="50.4"/>
  </clipPath>
  <clipPath id="p9226cf795b">
   <rect height="326.16" width="304.363636" x="407.856676" y="50.4"/>
  </clipPath>
 </defs>
</svg>
